<svg width="48" height="49" viewBox="0 0 48 49" fill="none" xmlns="http://www.w3.org/2000/svg">
<rect y="0.330078" width="48" height="48" rx="24" fill="#EAAC8B"/>
<path fill-rule="evenodd" clip-rule="evenodd" d="M16.8 17.13C16.8 16.4935 17.0529 15.883 17.503 15.4329C17.9531 14.9828 18.5635 14.73 19.2 14.73H24.7032C25.3397 14.7301 25.9501 14.9831 26.4 15.4332L30.4968 19.53C30.947 19.98 31.1999 20.5903 31.2 21.2268V31.53C31.2 32.1665 30.9472 32.7769 30.4971 33.227C30.047 33.6771 29.4366 33.93 28.8 33.93H19.2C18.5635 33.93 17.9531 33.6771 17.503 33.227C17.0529 32.7769 16.8 32.1665 16.8 31.53V17.13ZM19.2 24.33C19.2 24.0117 19.3265 23.7065 19.5515 23.4815C19.7766 23.2564 20.0818 23.13 20.4 23.13H27.6C27.9183 23.13 28.2235 23.2564 28.4486 23.4815C28.6736 23.7065 28.8 24.0117 28.8 24.33C28.8 24.6482 28.6736 24.9535 28.4486 25.1785C28.2235 25.4036 27.9183 25.53 27.6 25.53H20.4C20.0818 25.53 19.7766 25.4036 19.5515 25.1785C19.3265 24.9535 19.2 24.6482 19.2 24.33ZM20.4 27.93C20.0818 27.93 19.7766 28.0564 19.5515 28.2815C19.3265 28.5065 19.2 28.8117 19.2 29.13C19.2 29.4482 19.3265 29.7535 19.5515 29.9785C19.7766 30.2036 20.0818 30.33 20.4 30.33H27.6C27.9183 30.33 28.2235 30.2036 28.4486 29.9785C28.6736 29.7535 28.8 29.4482 28.8 29.13C28.8 28.8117 28.6736 28.5065 28.4486 28.2815C28.2235 28.0564 27.9183 27.93 27.6 27.93H20.4Z" fill="white"/>
</svg>
