<svg width="48" height="48" viewBox="0 0 48 48" fill="none" xmlns="http://www.w3.org/2000/svg">
<rect width="48" height="48" rx="24" fill="#B56576"/>
<path fill-rule="evenodd" clip-rule="evenodd" d="M16.8 16.8C16.8 16.1635 17.0529 15.5531 17.503 15.103C17.9531 14.6529 18.5635 14.4 19.2 14.4H24.7032C25.3397 14.4002 25.9501 14.6531 26.4 15.1032L30.4968 19.2C30.947 19.65 31.1999 20.2604 31.2 20.8968V31.2C31.2 31.8365 30.9472 32.447 30.4971 32.8971C30.047 33.3472 29.4366 33.6 28.8 33.6H19.2C18.5635 33.6 17.9531 33.3472 17.503 32.8971C17.0529 32.447 16.8 31.8365 16.8 31.2V16.8ZM19.2 24C19.2 23.6818 19.3265 23.3765 19.5515 23.1515C19.7766 22.9265 20.0818 22.8 20.4 22.8H27.6C27.9183 22.8 28.2235 22.9265 28.4486 23.1515C28.6736 23.3765 28.8 23.6818 28.8 24C28.8 24.3183 28.6736 24.6235 28.4486 24.8486C28.2235 25.0736 27.9183 25.2 27.6 25.2H20.4C20.0818 25.2 19.7766 25.0736 19.5515 24.8486C19.3265 24.6235 19.2 24.3183 19.2 24ZM20.4 27.6C20.0818 27.6 19.7766 27.7265 19.5515 27.9515C19.3265 28.1765 19.2 28.4818 19.2 28.8C19.2 29.1183 19.3265 29.4235 19.5515 29.6486C19.7766 29.8736 20.0818 30 20.4 30H27.6C27.9183 30 28.2235 29.8736 28.4486 29.6486C28.6736 29.4235 28.8 29.1183 28.8 28.8C28.8 28.4818 28.6736 28.1765 28.4486 27.9515C28.2235 27.7265 27.9183 27.6 27.6 27.6H20.4Z" fill="white"/>
</svg>
