<svg width="80" height="81" viewBox="0 0 80 81" fill="none" xmlns="http://www.w3.org/2000/svg">
<path fill-rule="evenodd" clip-rule="evenodd" d="M24 8.33008C22.9391 8.33008 21.9217 8.75151 21.1716 9.50165C20.4214 10.2518 20 11.2692 20 12.3301V16.3301H16C13.8783 16.3301 11.8434 17.1729 10.3431 18.6732C8.84285 20.1735 8 22.2083 8 24.3301V64.3301C8 66.4518 8.84285 68.4866 10.3431 69.9869C11.8434 71.4872 13.8783 72.3301 16 72.3301H64C66.1217 72.3301 68.1566 71.4872 69.6569 69.9869C71.1571 68.4866 72 66.4518 72 64.3301V24.3301C72 22.2083 71.1571 20.1735 69.6569 18.6732C68.1566 17.1729 66.1217 16.3301 64 16.3301H60V12.3301C60 11.2692 59.5786 10.2518 58.8284 9.50165C58.0783 8.75151 57.0609 8.33008 56 8.33008C54.9391 8.33008 53.9217 8.75151 53.1716 9.50165C52.4214 10.2518 52 11.2692 52 12.3301V16.3301H28V12.3301C28 11.2692 27.5786 10.2518 26.8284 9.50165C26.0783 8.75151 25.0609 8.33008 24 8.33008ZM24 28.3301C22.9391 28.3301 21.9217 28.7515 21.1716 29.5017C20.4214 30.2518 20 31.2692 20 32.3301C20 33.3909 20.4214 34.4084 21.1716 35.1585C21.9217 35.9086 22.9391 36.3301 24 36.3301H56C57.0609 36.3301 58.0783 35.9086 58.8284 35.1585C59.5786 34.4084 60 33.3909 60 32.3301C60 31.2692 59.5786 30.2518 58.8284 29.5017C58.0783 28.7515 57.0609 28.3301 56 28.3301H24Z" fill="#6D597A"/>
</svg>
