<svg width="80" height="81" viewBox="0 0 80 81" fill="none" xmlns="http://www.w3.org/2000/svg">
<path d="M40 72.33C48.4869 72.33 56.6263 68.9585 62.6274 62.9574C68.6286 56.9562 72 48.8169 72 40.33C72 31.843 68.6286 23.7037 62.6274 17.7025C56.6263 11.7014 48.4869 8.32996 40 8.32996C31.5131 8.32996 23.3737 11.7014 17.3726 17.7025C11.3714 23.7037 8 31.843 8 40.33C8 48.8169 11.3714 56.9562 17.3726 62.9574C23.3737 68.9585 31.5131 72.33 40 72.33ZM38.22 29.002C37.6176 28.6 36.9174 28.3692 36.1941 28.3341C35.4707 28.2989 34.7515 28.4608 34.1129 28.8025C33.4744 29.1441 32.9406 29.6527 32.5685 30.2739C32.1964 30.8952 31.9999 31.6058 32 32.33V48.33C31.9999 49.0541 32.1964 49.7647 32.5685 50.386C32.9406 51.0072 33.4744 51.5158 34.1129 51.8575C34.7515 52.1991 35.4707 52.361 36.1941 52.3258C36.9174 52.2907 37.6176 52.0599 38.22 51.658L50.22 43.658C50.7678 43.2927 51.217 42.7978 51.5277 42.2172C51.8384 41.6367 52.0009 40.9884 52.0009 40.33C52.0009 39.6715 51.8384 39.0232 51.5277 38.4427C51.217 37.8621 50.7678 37.3672 50.22 37.002L38.22 29.002Z" fill="#6D597A"/>
</svg>
