<svg width="72" height="56" viewBox="0 0 72 56" fill="none" xmlns="http://www.w3.org/2000/svg">
<path fill-rule="evenodd" clip-rule="evenodd" d="M45.2639 0.204058C45.7624 0.369946 46.2234 0.632436 46.6205 0.976535C47.0176 1.32063 47.343 1.7396 47.5782 2.20949C47.8133 2.67939 47.9536 3.19101 47.9909 3.71512C48.0283 4.23923 47.962 4.76557 47.7959 5.26406L31.7959 53.2641C31.4606 54.2708 30.7392 55.1032 29.7903 55.578C28.8413 56.0529 27.7426 56.1313 26.7359 55.7961C25.7291 55.4608 24.8968 54.7394 24.4219 53.7905C23.9471 52.8415 23.8686 51.7428 24.2039 50.7361L40.2039 2.73606C40.3698 2.23749 40.6323 1.77649 40.9764 1.3794C41.3205 0.982301 41.7394 0.656892 42.2093 0.421759C42.6792 0.186626 43.1908 0.0463759 43.7149 0.00902208C44.2391 -0.0283318 44.7654 0.0379426 45.2639 0.204058ZM18.8279 13.1721C19.5778 13.9222 19.999 14.9394 19.999 16.0001C19.999 17.0607 19.5778 18.0779 18.8279 18.8281L9.65588 28.0001L18.8279 37.1721C19.2099 37.541 19.5146 37.9824 19.7243 38.4704C19.9339 38.9585 20.0443 39.4833 20.0489 40.0145C20.0535 40.5456 19.9523 41.0723 19.7512 41.5639C19.55 42.0555 19.253 42.5021 18.8775 42.8776C18.5019 43.2532 18.0553 43.5502 17.5637 43.7513C17.0721 43.9525 16.5454 44.0537 16.0143 44.0491C15.4832 44.0444 14.9583 43.9341 14.4703 43.7245C13.9822 43.5148 13.5409 43.2101 13.1719 42.8281L1.17188 30.8281C0.421994 30.0779 0.000732422 29.0607 0.000732422 28.0001C0.000732422 26.9394 0.421994 25.9222 1.17188 25.1721L13.1719 13.1721C13.922 12.4222 14.9392 12.0009 15.9999 12.0009C17.0605 12.0009 18.0778 12.4222 18.8279 13.1721ZM53.1719 13.1721C53.922 12.4222 54.9392 12.0009 55.9999 12.0009C57.0605 12.0009 58.0778 12.4222 58.8279 13.1721L70.8279 25.1721C71.5778 25.9222 71.999 26.9394 71.999 28.0001C71.999 29.0607 71.5778 30.0779 70.8279 30.8281L58.8279 42.8281C58.4589 43.2101 58.0175 43.5148 57.5295 43.7245C57.0415 43.9341 56.5166 44.0444 55.9855 44.0491C55.4544 44.0537 54.9276 43.9525 54.4361 43.7513C53.9445 43.5502 53.4979 43.2532 53.1223 42.8776C52.7467 42.5021 52.4497 42.0555 52.2486 41.5639C52.0475 41.0723 51.9463 40.5456 51.9509 40.0145C51.9555 39.4833 52.0658 38.9585 52.2755 38.4704C52.4851 37.9824 52.7898 37.541 53.1719 37.1721L62.3439 28.0001L53.1719 18.8281C52.422 18.0779 52.0007 17.0607 52.0007 16.0001C52.0007 14.9394 52.422 13.9222 53.1719 13.1721Z" fill="#6D597A"/>
</svg>
