<svg width="80" height="80" viewBox="0 0 80 80" fill="none" xmlns="http://www.w3.org/2000/svg">
<path d="M52 24C52 27.1826 50.7357 30.2348 48.4853 32.4853C46.2348 34.7357 43.1826 36 40 36C36.8174 36 33.7652 34.7357 31.5147 32.4853C29.2643 30.2348 28 27.1826 28 24C28 20.8174 29.2643 17.7652 31.5147 15.5147C33.7652 13.2643 36.8174 12 40 12C43.1826 12 46.2348 13.2643 48.4853 15.5147C50.7357 17.7652 52 20.8174 52 24ZM72 32C72 34.1217 71.1571 36.1566 69.6569 37.6569C68.1566 39.1571 66.1217 40 64 40C61.8783 40 59.8434 39.1571 58.3431 37.6569C56.8429 36.1566 56 34.1217 56 32C56 29.8783 56.8429 27.8434 58.3431 26.3431C59.8434 24.8429 61.8783 24 64 24C66.1217 24 68.1566 24.8429 69.6569 26.3431C71.1571 27.8434 72 29.8783 72 32ZM56 60C56 55.7565 54.3143 51.6869 51.3137 48.6863C48.3131 45.6857 44.2435 44 40 44C35.7565 44 31.6869 45.6857 28.6863 48.6863C25.6857 51.6869 24 55.7565 24 60V72H56V60ZM24 32C24 34.1217 23.1571 36.1566 21.6569 37.6569C20.1566 39.1571 18.1217 40 16 40C13.8783 40 11.8434 39.1571 10.3431 37.6569C8.84286 36.1566 8 34.1217 8 32C8 29.8783 8.84286 27.8434 10.3431 26.3431C11.8434 24.8429 13.8783 24 16 24C18.1217 24 20.1566 24.8429 21.6569 26.3431C23.1571 27.8434 24 29.8783 24 32ZM64 72V60C64.0058 55.9331 62.9732 51.9321 61 48.376C62.7734 47.9222 64.627 47.8794 66.4194 48.2509C68.2119 48.6224 69.8958 49.3984 71.3427 50.5196C72.7897 51.6409 73.9614 53.0779 74.7685 54.7208C75.5756 56.3638 75.9968 58.1695 76 60V72H64ZM19 48.376C17.027 51.9322 15.9944 55.9332 16 60V72H4V60C3.99923 58.1682 4.41785 56.3605 5.22379 54.7154C6.02972 53.0704 7.20158 51.6317 8.64954 50.5097C10.0975 49.3876 11.7831 48.6119 13.5772 48.2421C15.3714 47.8722 17.2263 47.918 19 48.376Z" fill="#B56576"/>
</svg>
