<svg width="16" height="17" viewBox="0 0 16 17" fill="none" xmlns="http://www.w3.org/2000/svg">
<path fill-rule="evenodd" clip-rule="evenodd" d="M4.03994 3.5701C5.0902 2.51984 6.51465 1.92981 7.99994 1.92981C9.48523 1.92981 10.9097 2.51984 11.9599 3.5701C13.0102 4.62035 13.6002 6.04481 13.6002 7.5301C13.6002 9.01538 13.0102 10.4398 11.9599 11.4901L7.99994 15.4501L4.03994 11.4901C3.51987 10.9701 3.10733 10.3527 2.82587 9.67325C2.5444 8.99379 2.39954 8.26555 2.39954 7.5301C2.39954 6.79464 2.5444 6.0664 2.82587 5.38694C3.10733 4.70748 3.51987 4.09011 4.03994 3.5701ZM7.99994 9.1301C8.42429 9.1301 8.83125 8.96152 9.13131 8.66147C9.43137 8.36141 9.59994 7.95444 9.59994 7.5301C9.59994 7.10575 9.43137 6.69878 9.13131 6.39872C8.83125 6.09867 8.42429 5.9301 7.99994 5.9301C7.57559 5.9301 7.16863 6.09867 6.86857 6.39872C6.56851 6.69878 6.39994 7.10575 6.39994 7.5301C6.39994 7.95444 6.56851 8.36141 6.86857 8.66147C7.16863 8.96152 7.57559 9.1301 7.99994 9.1301Z" fill="#355070"/>
</svg>
