<svg width="80" height="81" viewBox="0 0 80 81" fill="none" xmlns="http://www.w3.org/2000/svg">
<path d="M40 8.33008C34.6957 8.33008 29.6086 10.4372 25.8579 14.1879C22.1071 17.9387 20 23.0257 20 28.3301V36.3301C17.8783 36.3301 15.8434 37.1729 14.3431 38.6732C12.8429 40.1735 12 42.2083 12 44.3301V64.3301C12 66.4518 12.8429 68.4866 14.3431 69.9869C15.8434 71.4872 17.8783 72.3301 20 72.3301H60C62.1217 72.3301 64.1566 71.4872 65.6569 69.9869C67.1571 68.4866 68 66.4518 68 64.3301V44.3301C68 42.2083 67.1571 40.1735 65.6569 38.6732C64.1566 37.1729 62.1217 36.3301 60 36.3301H28V28.3301C27.999 25.4086 29.0638 22.5872 30.9947 20.3948C32.9255 18.2024 35.5899 16.7897 38.488 16.4216C41.3862 16.0535 44.3191 16.7553 46.7367 18.3954C49.1543 20.0355 50.8906 22.5012 51.62 25.3301C51.8852 26.3575 52.5477 27.2375 53.4618 27.7765C53.9144 28.0434 54.4151 28.2185 54.9354 28.2919C55.4556 28.3652 55.9853 28.3354 56.494 28.2041C57.0027 28.0728 57.4806 27.8425 57.9004 27.5265C58.3202 27.2105 58.6736 26.8149 58.9404 26.3623C59.2073 25.9097 59.3824 25.409 59.4558 24.8887C59.5292 24.3684 59.4993 23.8388 59.368 23.3301C58.2581 19.0371 55.7537 15.2345 52.248 12.5194C48.7423 9.80437 44.4341 8.33077 40 8.33008Z" fill="#E56B6F"/>
</svg>
