<svg width="232" height="233" viewBox="0 0 232 233" fill="none" xmlns="http://www.w3.org/2000/svg">
<path d="M116 228.664C177.855 228.664 227.999 178.52 227.999 116.665C227.999 54.8097 177.855 4.666 116 4.666C54.1451 4.666 4.00171 54.8097 4.00171 116.665C4.00171 178.52 54.1451 228.664 116 228.664Z" fill="#EAAC8B" fill-opacity="0.3"/>
<path d="M116 206.263C165.484 206.263 205.599 166.149 205.599 116.665C205.599 67.1805 165.484 27.0658 116 27.0658C66.5161 27.0658 26.4014 67.1805 26.4014 116.665C26.4014 166.149 66.5161 206.263 116 206.263Z" fill="#E56B6F" fill-opacity="0.2"/>
<path d="M116 183.864C153.113 183.864 183.199 153.778 183.199 116.665C183.199 79.5516 153.113 49.4656 116 49.4656C78.8871 49.4656 48.801 79.5516 48.801 116.665C48.801 153.778 78.8871 183.864 116 183.864Z" fill="#B56576" fill-opacity="0.2"/>
<path d="M116 161.464C140.742 161.464 160.799 141.407 160.799 116.665C160.799 91.9227 140.742 71.8654 116 71.8654C91.258 71.8654 71.2007 91.9227 71.2007 116.665C71.2007 141.407 91.258 161.464 116 161.464Z" fill="#6D597A" fill-opacity="0.3"/>
<path opacity="0.5" d="M116 4.666C153.333 23.3325 171.999 60.6655 171.999 116.665C171.999 172.664 153.333 209.997 116 228.664C78.6671 209.997 60.0007 172.664 60.0007 116.665C60.0007 60.6655 78.6671 23.3325 116 4.666Z" stroke="#6D597A" stroke-width="1.49331"/>
<path opacity="0.5" d="M116 27.0657C145.866 41.9988 160.799 71.865 160.799 116.664C160.799 161.464 145.866 191.33 116 206.263C86.1338 191.33 71.2007 161.464 71.2007 116.664C71.2007 71.865 86.1338 41.9988 116 27.0657Z" stroke="#B56576" stroke-width="1.49331"/>
<path opacity="0.5" d="M116 49.4654C138.4 60.6652 149.599 83.0649 149.599 116.664C149.599 150.264 138.4 172.664 116 183.863C93.6002 172.664 82.4004 150.264 82.4004 116.664C82.4004 83.0649 93.6002 60.6652 116 49.4654Z" stroke="#E56B6F" stroke-width="1.49331"/>
<path opacity="0.5" d="M116 71.8654C130.933 79.332 138.4 94.2651 138.4 116.665C138.4 139.064 130.933 153.998 116 161.464C101.067 153.998 93.6003 139.064 93.6003 116.665C93.6003 94.2651 101.067 79.332 116 71.8654Z" stroke="#EAAC8B" stroke-width="1.49331"/>
<path d="M116 8.39925C118.062 8.39925 119.733 6.72781 119.733 4.66597C119.733 2.60414 118.062 0.932693 116 0.932693C113.938 0.932693 112.267 2.60414 112.267 4.66597C112.267 6.72781 113.938 8.39925 116 8.39925Z" fill="#6D597A"/>
<path d="M116 232.397C118.062 232.397 119.733 230.726 119.733 228.664C119.733 226.602 118.062 224.931 116 224.931C113.938 224.931 112.267 226.602 112.267 228.664C112.267 230.726 113.938 232.397 116 232.397Z" fill="#6D597A"/>
<path d="M227.998 120.398C230.06 120.398 231.732 118.727 231.732 116.665C231.732 114.603 230.06 112.932 227.998 112.932C225.937 112.932 224.265 114.603 224.265 116.665C224.265 118.727 225.937 120.398 227.998 120.398Z" fill="#6D597A"/>
<path d="M4.00159 120.398C6.06342 120.398 7.73487 118.727 7.73487 116.665C7.73487 114.603 6.06342 112.932 4.00159 112.932C1.93976 112.932 0.268311 114.603 0.268311 116.665C0.268311 118.727 1.93976 120.398 4.00159 120.398Z" fill="#6D597A"/>
<path d="M195.145 41.2521C197.207 41.2521 198.879 39.5807 198.879 37.5188C198.879 35.457 197.207 33.7856 195.145 33.7856C193.084 33.7856 191.412 35.457 191.412 37.5188C191.412 39.5807 193.084 41.2521 195.145 41.2521Z" fill="#B56576"/>
<path d="M195.145 199.544C197.207 199.544 198.879 197.873 198.879 195.811C198.879 193.749 197.207 192.078 195.145 192.078C193.084 192.078 191.412 193.749 191.412 195.811C191.412 197.873 193.084 199.544 195.145 199.544Z" fill="#B56576"/>
<path d="M36.8544 199.544C38.9162 199.544 40.5877 197.873 40.5877 195.811C40.5877 193.749 38.9162 192.078 36.8544 192.078C34.7925 192.078 33.1211 193.749 33.1211 195.811C33.1211 197.873 34.7925 199.544 36.8544 199.544Z" fill="#B56576"/>
<path d="M36.8544 41.2521C38.9162 41.2521 40.5877 39.5807 40.5877 37.5188C40.5877 35.457 38.9162 33.7856 36.8544 33.7856C34.7925 33.7856 33.1211 35.457 33.1211 37.5188C33.1211 39.5807 34.7925 41.2521 36.8544 41.2521Z" fill="#B56576"/>
</svg>
