<svg width="48" height="48" viewBox="0 0 48 48" fill="none" xmlns="http://www.w3.org/2000/svg">
<path fill-rule="evenodd" clip-rule="evenodd" d="M16.7999 4.80005C16.3253 4.80015 15.8614 4.94096 15.4668 5.20469C15.0723 5.46841 14.7647 5.8432 14.5831 6.28168C14.4015 6.72016 14.354 7.20264 14.4465 7.66812C14.5391 8.13361 14.7676 8.5612 15.1031 8.89685L16.7999 10.5936V19.6128C16.7998 20.2493 16.5469 20.8597 16.0967 21.3096L6.49674 30.9096C1.96074 35.4457 5.17434 43.2001 11.5871 43.2001H36.4103C42.8255 43.2001 46.0391 35.4457 41.5031 30.9096L31.9031 21.3096C31.453 20.8597 31.2001 20.2493 31.1999 19.6128V10.5936L32.8967 8.89685C33.2323 8.5612 33.4608 8.13361 33.5533 7.66812C33.6459 7.20264 33.5984 6.72016 33.4168 6.28168C33.2352 5.8432 32.9276 5.46841 32.533 5.20469C32.1385 4.94096 31.6745 4.80015 31.1999 4.80005H16.7999ZM21.5999 19.6128V9.60005H26.3999V19.6128C26.401 21.5214 27.1598 23.3515 28.5095 24.7008L30.9743 27.168C29.2482 26.7672 27.4449 26.8519 25.7639 27.4128L24.6359 27.7873C22.6652 28.4442 20.5346 28.4442 18.5639 27.7873L17.2127 27.3384C17.1224 27.3077 17.0312 27.2797 16.9391 27.2544L19.4903 24.7033C20.8407 23.3533 21.5995 21.5223 21.5999 19.6128Z" fill="#6D597A"/>
</svg>
