<svg width="24" height="24" viewBox="0 0 24 24" fill="none" xmlns="http://www.w3.org/2000/svg">
<path fill-rule="evenodd" clip-rule="evenodd" d="M4.80005 4.80002C4.80005 4.1635 5.05291 3.55306 5.50299 3.10297C5.95308 2.65288 6.56353 2.40002 7.20005 2.40002H12.7032C13.3397 2.40016 13.9501 2.65311 14.4 3.10322L18.4968 7.20002C18.947 7.65001 19.1999 8.26036 19.2 8.89682V19.2C19.2 19.8365 18.9472 20.447 18.4971 20.8971C18.047 21.3472 17.4366 21.6 16.8 21.6H7.20005C6.56353 21.6 5.95308 21.3472 5.50299 20.8971C5.05291 20.447 4.80005 19.8365 4.80005 19.2V4.80002ZM7.20005 12C7.20005 11.6818 7.32648 11.3765 7.55152 11.1515C7.77656 10.9265 8.08179 10.8 8.40005 10.8H15.6C15.9183 10.8 16.2235 10.9265 16.4486 11.1515C16.6736 11.3765 16.8 11.6818 16.8 12C16.8 12.3183 16.6736 12.6235 16.4486 12.8486C16.2235 13.0736 15.9183 13.2 15.6 13.2H8.40005C8.08179 13.2 7.77656 13.0736 7.55152 12.8486C7.32648 12.6235 7.20005 12.3183 7.20005 12ZM8.40005 15.6C8.08179 15.6 7.77656 15.7265 7.55152 15.9515C7.32648 16.1765 7.20005 16.4818 7.20005 16.8C7.20005 17.1183 7.32648 17.4235 7.55152 17.6486C7.77656 17.8736 8.08179 18 8.40005 18H15.6C15.9183 18 16.2235 17.8736 16.4486 17.6486C16.6736 17.4235 16.8 17.1183 16.8 16.8C16.8 16.4818 16.6736 16.1765 16.4486 15.9515C16.2235 15.7265 15.9183 15.6 15.6 15.6H8.40005Z" fill="white"/>
</svg>
