<svg width="80" height="81" viewBox="0 0 80 81" fill="none" xmlns="http://www.w3.org/2000/svg">
<path fill-rule="evenodd" clip-rule="evenodd" d="M40 72.33C48.4869 72.33 56.6263 68.9585 62.6274 62.9574C68.6286 56.9562 72 48.8169 72 40.33C72 31.843 68.6286 23.7037 62.6274 17.7025C56.6263 11.7014 48.4869 8.32996 40 8.32996C31.5131 8.32996 23.3737 11.7014 17.3726 17.7025C11.3714 23.7037 8 31.843 8 40.33C8 48.8169 11.3714 56.9562 17.3726 62.9574C23.3737 68.9585 31.5131 72.33 40 72.33ZM44 28.33C44 27.2691 43.5786 26.2517 42.8284 25.5015C42.0783 24.7514 41.0609 24.33 40 24.33C38.9391 24.33 37.9217 24.7514 37.1716 25.5015C36.4214 26.2517 36 27.2691 36 28.33V36.33H28C26.9391 36.33 25.9217 36.7514 25.1716 37.5015C24.4214 38.2517 24 39.2691 24 40.33C24 41.3908 24.4214 42.4082 25.1716 43.1584C25.9217 43.9085 26.9391 44.33 28 44.33H36V52.33C36 53.3908 36.4214 54.4082 37.1716 55.1584C37.9217 55.9085 38.9391 56.33 40 56.33C41.0609 56.33 42.0783 55.9085 42.8284 55.1584C43.5786 54.4082 44 53.3908 44 52.33V44.33H52C53.0609 44.33 54.0783 43.9085 54.8284 43.1584C55.5786 42.4082 56 41.3908 56 40.33C56 39.2691 55.5786 38.2517 54.8284 37.5015C54.0783 36.7514 53.0609 36.33 52 36.33H44V28.33Z" fill="#B56576"/>
</svg>
