<svg width="62" height="62" viewBox="0 0 62 62" fill="none" xmlns="http://www.w3.org/2000/svg">
<path d="M61.1721 43.172C55.2461 45.8524 48.6441 46.6635 42.2455 45.4971C35.847 44.3307 29.9558 41.2423 25.3568 36.6433C20.7578 32.0443 17.6693 26.1531 16.503 19.7545C15.3366 13.356 16.1476 6.75396 18.8281 0.828003C14.1103 2.96005 9.9802 6.20478 6.79207 10.2838C3.60395 14.3629 1.45298 19.1545 0.523698 24.2476C-0.405581 29.3406 -0.0854259 34.5831 1.4567 39.5252C2.99882 44.4674 5.71687 48.9616 9.37766 52.6224C13.0385 56.2832 17.5327 59.0012 22.4748 60.5434C27.417 62.0855 32.6595 62.4056 37.7525 61.4764C42.8456 60.5471 47.6372 58.3961 51.7162 55.208C55.7953 52.0199 59.04 47.8898 61.1721 43.172Z" fill="#E56B6F"/>
</svg>
