<svg width="48" height="48" viewBox="0 0 48 48" fill="none" xmlns="http://www.w3.org/2000/svg">
<path fill-rule="evenodd" clip-rule="evenodd" d="M7.61275 12.4128C9.41302 10.6131 11.8544 9.60207 14.4 9.60207C16.9455 9.60207 19.3869 10.6131 21.1872 12.4128L24 15.2232L26.8128 12.4128C27.6983 11.4959 28.7576 10.7646 29.9289 10.2614C31.1001 9.75832 32.3598 9.49349 33.6345 9.48242C34.9092 9.47134 36.1733 9.71424 37.3531 10.1969C38.5329 10.6796 39.6048 11.3925 40.5061 12.2938C41.4075 13.1952 42.1203 14.2671 42.603 15.4469C43.0857 16.6267 43.3286 17.8908 43.3176 19.1655C43.3065 20.4402 43.0417 21.6999 42.5385 22.8711C42.0354 24.0423 41.304 25.1017 40.3871 25.9872L24 42.3768L7.61275 25.9872C5.81303 24.187 4.802 21.7456 4.802 19.2C4.802 16.6544 5.81303 14.2131 7.61275 12.4128Z" fill="#6D597A"/>
</svg>
