<svg width="48" height="48" viewBox="0 0 48 48" fill="none" xmlns="http://www.w3.org/2000/svg">
<path d="M24 28.8C25.273 28.8 26.4939 28.2942 27.3941 27.3941C28.2942 26.4939 28.8 25.273 28.8 24C28.8 22.7269 28.2942 21.506 27.3941 20.6058C26.4939 19.7057 25.273 19.2 24 19.2C22.7269 19.2 21.506 19.7057 20.6058 20.6058C19.7057 21.506 19.2 22.7269 19.2 24C19.2 25.273 19.7057 26.4939 20.6058 27.3941C21.506 28.2942 22.7269 28.8 24 28.8Z" fill="#6D597A"/>
<path fill-rule="evenodd" clip-rule="evenodd" d="M1.09912 24C4.15672 14.2632 13.2527 7.19995 23.9999 7.19995C34.7471 7.19995 43.8431 14.2632 46.9007 24C43.8431 33.7368 34.7471 40.8 23.9999 40.8C13.2527 40.8 4.15672 33.7368 1.09912 24ZM33.5999 24C33.5999 26.546 32.5885 28.9878 30.7881 30.7882C28.9878 32.5885 26.546 33.6 23.9999 33.6C21.4538 33.6 19.012 32.5885 17.2117 30.7882C15.4113 28.9878 14.3999 26.546 14.3999 24C14.3999 21.4539 15.4113 19.0121 17.2117 17.2117C19.012 15.4114 21.4538 14.4 23.9999 14.4C26.546 14.4 28.9878 15.4114 30.7881 17.2117C32.5885 19.0121 33.5999 21.4539 33.5999 24Z" fill="#6D597A"/>
</svg>
